<svg width="109" height="62" viewBox="0 0 109 62" fill="none" xmlns="http://www.w3.org/2000/svg">
<path d="M107.09 11.0879C107.09 32.5148 83.5375 59.1818 54.484 59.1818C25.4305 59.1818 1.87793 32.5148 1.87793 11.0879C1.87793 11.0879 25.4305 3.75757 54.484 3.75757C83.5375 3.75757 107.09 11.0879 107.09 11.0879Z" fill="#53CAF1"/>
<rect x="38.5146" y="52.6061" width="32.8788" height="9.39394" rx="4.69697" fill="#53CAF1"/>
<path d="M54.4844 2C69.4522 2 82.955 3.04734 92.6719 4.72266C97.5462 5.56307 101.372 6.54598 103.933 7.58984C105.222 8.11552 106.077 8.61093 106.574 9.03027C106.772 9.19717 106.876 9.31858 106.93 9.39355C106.877 9.4685 106.773 9.59049 106.574 9.75781C106.077 10.1772 105.222 10.6726 103.933 11.1982C101.372 12.2421 97.5462 13.225 92.6719 14.0654C82.955 15.7408 69.4522 16.7881 54.4844 16.7881C39.5168 16.7881 26.0146 15.7407 16.2979 14.0654C11.4235 13.225 7.59801 12.2421 5.03711 11.1982C3.74753 10.6726 2.89321 10.1772 2.39551 9.75781C2.19652 9.59016 2.09213 9.46847 2.03906 9.39355C2.09224 9.31861 2.19704 9.19751 2.39551 9.03027C2.89321 8.61093 3.74753 8.11552 5.03711 7.58984C7.59801 6.54598 11.4235 5.56307 16.2979 4.72266C26.0146 3.04735 39.5168 2.00002 54.4844 2Z" fill="#53CAF1" stroke="white" stroke-width="4"/>
</svg>
