<svg width="223" height="105" viewBox="0 0 223 105" fill="none" xmlns="http://www.w3.org/2000/svg">
<path d="M180.927 45.8431C181.441 43.5906 182.289 41.7643 183.47 40.3641C184.704 38.9835 186.122 37.8527 187.724 36.9717C189.379 36.1104 191.103 35.3959 192.896 34.8284C194.742 34.2805 196.471 33.7203 198.082 33.1478C199.747 32.5949 201.18 31.9269 202.38 31.1437C203.58 30.3606 204.415 29.3227 204.885 28.03C205.474 26.4141 205.569 24.8937 205.173 23.4685C204.777 22.0434 203.906 20.7503 202.559 19.5893C201.267 18.4479 199.543 17.4852 197.389 16.701C194.911 15.7992 192.453 15.5145 190.014 15.8468C187.576 16.179 184.977 17.0328 182.22 18.408L177.83 9.8566C181.494 7.83522 185.399 6.57295 189.547 6.06978C193.769 5.53235 198.007 6.03799 202.262 7.58669C206.194 9.01778 209.452 10.8747 212.037 13.1575C214.676 15.4598 216.416 18.1366 217.257 21.1876C218.172 24.2045 217.973 27.5172 216.659 31.1259C215.934 33.1188 214.866 34.7124 213.455 35.9069C212.118 37.0671 210.561 37.9946 208.783 38.6894C207.078 39.35 205.303 39.9543 203.457 40.5022C201.63 40.9963 199.891 41.5834 198.241 42.2636C196.59 42.9438 195.16 43.8567 193.95 45.0022C192.74 46.1477 191.873 47.6925 191.349 49.6364L180.927 45.8431ZM178.356 69.2451C176.309 68.5001 174.858 67.2093 174.001 65.3727C173.145 63.5361 173.089 61.5944 173.834 59.5477C174.599 57.4471 175.899 55.9686 177.736 55.1122C179.572 54.2557 181.514 54.2 183.561 54.9449C185.608 55.6899 187.059 56.9807 187.916 58.8173C188.772 60.6539 188.818 62.6225 188.053 64.7231C187.308 66.7698 186.018 68.2214 184.181 69.0779C182.344 69.9343 180.403 69.99 178.356 69.2451Z" fill="#53CAF1"/>
<path d="M144.323 19.5525C144.048 19.9455 143.734 20.3975 143.38 20.9085C143.066 21.3801 142.751 21.8517 142.437 22.3234C141.729 23.3846 140.943 24.6227 140.078 26.0376C139.253 27.4132 138.388 28.8871 137.484 30.4593C136.58 31.9921 135.696 33.5249 134.831 35.0578C134.006 36.5906 133.22 38.0056 132.473 39.3026C133.574 38.6737 134.694 38.2217 135.834 37.9466C136.973 37.6715 138.113 37.5339 139.253 37.5339C141.454 37.5339 143.183 38.2021 144.441 39.5384C145.738 40.8354 146.446 42.722 146.564 45.1981C146.603 46.0628 146.623 47.1044 146.623 48.3228C146.623 49.5412 146.623 50.7596 146.623 51.978C146.662 53.1964 146.721 54.2183 146.799 55.0437C146.917 56.1835 147.33 57.0089 148.037 57.5198C148.784 57.9915 149.649 58.2273 150.631 58.2273C151.889 58.2273 153.029 57.8539 154.051 57.1072C155.112 56.3604 156.055 55.3385 156.881 54.0415C157.706 52.7051 158.414 51.2116 159.003 49.5608C159.632 47.8708 160.163 46.1218 160.595 44.3138L166.962 49.5019C165.94 52.8427 164.643 55.7905 163.071 58.3452C161.499 60.8607 159.573 62.8062 157.293 64.1818C155.053 65.5967 152.42 66.3042 149.393 66.3042C147.232 66.3042 145.424 65.9112 143.97 65.1251C142.515 64.3783 141.434 63.3957 140.727 62.1773C140.019 60.9196 139.626 59.5636 139.548 58.1094C139.469 57.0482 139.41 55.8691 139.371 54.5721C139.371 53.275 139.351 52.0173 139.312 50.7989C139.312 49.5412 139.273 48.5193 139.194 47.7332C139.116 46.7113 138.781 45.9056 138.192 45.316C137.602 44.7265 136.777 44.4317 135.716 44.4317C134.419 44.4317 133.181 44.8444 132.002 45.6698C130.822 46.4952 129.742 47.576 128.759 48.9123C127.816 50.2487 126.99 51.7225 126.283 53.334C125.89 54.1987 125.477 55.2206 125.045 56.3997C124.612 57.5788 124.2 58.7972 123.807 60.0549C123.414 61.3126 123.04 62.4918 122.687 63.5923C122.333 64.7321 122.038 65.695 121.802 66.4811L113.49 63.6512C114.236 61.686 115.14 59.4457 116.201 56.9303C117.302 54.3756 118.501 51.7029 119.798 48.9123C121.095 46.1218 122.411 43.3509 123.748 40.5996C125.084 37.8483 126.361 35.2543 127.58 32.8175C128.798 30.3413 129.879 28.1993 130.822 26.3913C131.805 24.544 132.552 23.1488 133.063 22.2055C133.456 21.4194 133.908 20.5351 134.419 19.5525C134.93 18.5699 135.441 17.4497 135.952 16.192L144.323 19.5525Z" fill="#53CAF1"/>
<path d="M74.4019 27.1578C76.0919 27.315 77.782 27.4526 79.4721 27.5705C81.2014 27.6491 82.9504 27.6884 84.7191 27.6884C88.335 27.6884 91.9313 27.5312 95.508 27.2168C99.0846 26.9023 102.386 26.411 105.412 25.7429V33.1123C102.347 33.5447 99.0256 33.8984 95.449 34.1735C91.8724 34.4093 88.2957 34.5273 84.7191 34.5273C82.9897 34.5273 81.2604 34.5076 79.531 34.4683C77.841 34.3897 76.1312 34.2914 74.4019 34.1735V27.1578ZM96.805 17.1943C96.7264 17.7446 96.6478 18.3538 96.5692 19.022C96.5299 19.6901 96.4906 20.3583 96.4513 21.0264C96.412 21.6553 96.3726 22.5003 96.3333 23.5615C96.294 24.6227 96.2744 25.8215 96.2744 27.1578C96.2744 28.4548 96.2744 29.8305 96.2744 31.2847C96.2744 33.9574 96.3137 36.4728 96.3923 38.831C96.4709 41.1499 96.5692 43.3116 96.6871 45.3161C96.805 47.2813 96.9032 49.0893 96.9819 50.74C97.0998 52.3908 97.1587 53.9236 97.1587 55.3386C97.1587 56.8714 96.9425 58.2863 96.5102 59.5834C96.1172 60.8804 95.4687 62.0202 94.5647 63.0028C93.6607 63.9854 92.4619 64.7321 90.9684 65.2431C89.5142 65.7933 87.7258 66.0685 85.6034 66.0685C81.5159 66.0685 78.293 65.2431 75.9347 63.5923C73.5765 61.9416 72.3974 59.5637 72.3974 56.4587C72.3974 54.4542 72.928 52.7052 73.9892 51.2117C75.0504 49.6788 76.5636 48.4997 78.5288 47.6743C80.494 46.8097 82.8129 46.3773 85.4855 46.3773C88.2761 46.3773 90.8112 46.6721 93.0908 47.2617C95.3704 47.8512 97.4535 48.6373 99.3401 49.6199C101.227 50.6025 102.897 51.6833 104.351 52.8624C105.845 54.0022 107.181 55.1027 108.36 56.1639L104.292 62.3543C102.052 60.2319 99.8707 58.4043 97.7483 56.8714C95.6259 55.3386 93.5035 54.1595 91.3811 53.3341C89.298 52.5087 87.1363 52.096 84.896 52.096C83.2452 52.096 81.8892 52.4104 80.828 53.0393C79.8061 53.6682 79.2952 54.5525 79.2952 55.6923C79.2952 56.8714 79.8258 57.7361 80.887 58.2863C81.9482 58.8366 83.2452 59.1117 84.7781 59.1117C85.9965 59.1117 86.9594 58.9152 87.6669 58.5222C88.3743 58.0898 88.8656 57.4806 89.1408 56.6945C89.4552 55.8692 89.6124 54.8866 89.6124 53.7468C89.6124 52.7249 89.5731 51.3885 89.4945 49.7378C89.4159 48.087 89.3176 46.2398 89.1997 44.196C89.1211 42.1522 89.0425 40.0298 88.9639 37.8288C88.8853 35.5885 88.846 33.4071 88.846 31.2847C88.846 29.0444 88.8263 27.0203 88.787 25.2123C88.787 23.365 88.787 21.9894 88.787 21.0854C88.787 20.6531 88.7477 20.0438 88.6691 19.2578C88.5905 18.4717 88.4923 17.7839 88.3743 17.1943H96.805ZM68.0347 17.8428C67.9168 18.2359 67.7399 18.7861 67.5041 19.4936C67.3076 20.2011 67.1307 20.8889 66.9735 21.557C66.8556 22.2252 66.7573 22.7362 66.6787 23.0899C66.4822 23.9153 66.266 25.0354 66.0302 26.4503C65.7944 27.826 65.5389 29.3981 65.2638 31.1668C65.028 32.8962 64.7921 34.6845 64.5563 36.5317C64.3205 38.3397 64.1436 40.0691 64.0257 41.7198C63.9078 43.3313 63.8488 44.7266 63.8488 45.9057C63.8488 46.4952 63.8488 47.1437 63.8488 47.8512C63.8882 48.5194 63.9668 49.1482 64.0847 49.7378C64.3598 49.0303 64.6349 48.3425 64.91 47.6743C65.2245 47.0062 65.5389 46.338 65.8533 45.6699C66.1678 45.0017 66.4625 44.3335 66.7377 43.6654L70.334 46.6131C69.7837 48.2246 69.2138 49.9147 68.6242 51.6833C68.074 53.452 67.563 55.1224 67.0914 56.6945C66.6591 58.2667 66.325 59.5834 66.0892 60.6446C66.0106 61.0376 65.9319 61.5092 65.8533 62.0595C65.814 62.6097 65.7944 63.0617 65.7944 63.4155C65.7944 63.7299 65.7944 64.1033 65.7944 64.5356C65.8337 65.0073 65.873 65.4396 65.9123 65.8326L59.2503 66.3632C58.6215 64.2801 58.0712 61.6272 57.5996 58.4043C57.1279 55.142 56.8921 51.5064 56.8921 47.4975C56.8921 45.2965 56.9904 42.9972 57.1869 40.5997C57.3834 38.1628 57.5996 35.8243 57.8354 33.584C58.1105 31.3437 58.3856 29.2999 58.6608 27.4526C58.9359 25.566 59.1521 24.0528 59.3093 22.913C59.4272 22.0876 59.5451 21.164 59.663 20.1421C59.7809 19.0809 59.8595 18.0787 59.8988 17.1354L68.0347 17.8428Z" fill="#53CAF1"/>
<path d="M3.95002 21.0854C6.11172 21.3605 8.54855 21.5571 11.2605 21.675C13.9725 21.7929 16.8809 21.8518 19.9859 21.8518C21.9511 21.8518 23.9556 21.8125 25.9994 21.7339C28.0432 21.6553 30.028 21.5571 31.9539 21.4391C33.8798 21.2819 35.5895 21.1444 37.083 21.0264V28.8675C35.7074 28.9461 34.037 29.0444 32.0718 29.1623C30.1459 29.2802 28.1218 29.3785 25.9994 29.4571C23.9163 29.5357 21.9315 29.575 20.0449 29.575C16.9792 29.575 14.1297 29.516 11.4963 29.3981C8.86298 29.2409 6.34755 29.0837 3.95002 28.9265V21.0854ZM8.90228 46.0826C8.62716 47.1044 8.39134 48.1067 8.19482 49.0893C7.9983 50.0719 7.90004 51.0545 7.90004 52.0371C7.90004 53.9629 8.84333 55.5351 10.7299 56.7535C12.6558 57.9326 15.7411 58.5222 19.9859 58.5222C22.6586 58.5222 25.233 58.4239 27.7091 58.2274C30.2245 58.0309 32.5828 57.7754 34.7838 57.461C36.9848 57.1072 38.95 56.6945 40.6793 56.2229L40.7383 64.4767C39.0482 64.8697 37.1223 65.2234 34.9606 65.5379C32.8382 65.8523 30.539 66.0881 28.0628 66.2453C25.626 66.4419 23.032 66.5401 20.2807 66.5401C15.7608 66.5401 12.0073 66.0292 9.0202 65.0073C6.03312 64.0247 3.77315 62.6098 2.24031 60.7625C0.74677 58.8759 0 56.5766 0 53.8647C0 52.1746 0.137562 50.6221 0.412688 49.2072C0.687814 47.753 0.923636 46.4756 1.12015 45.3751L8.90228 46.0826ZM38.6159 15.013C39.1268 15.7205 39.6574 16.5655 40.2077 17.5481C40.7972 18.5307 41.3671 19.5133 41.9174 20.4958C42.4676 21.4784 42.9393 22.3431 43.3323 23.0899L38.5569 25.1533C37.9674 23.9349 37.2402 22.5396 36.3756 20.9675C35.5502 19.3953 34.7445 18.0394 33.9584 16.8996L38.6159 15.013ZM45.6316 12.36C46.1425 13.1068 46.6928 13.9714 47.2823 14.954C47.8719 15.9366 48.4418 16.9192 48.992 17.9018C49.5816 18.8451 50.0532 19.6705 50.407 20.3779L45.6905 22.3824C45.0617 21.164 44.3149 19.7884 43.4502 18.2555C42.5855 16.6834 41.7405 15.3471 40.9151 14.2466L45.6316 12.36Z" fill="#53CAF1"/>
<path d="M163.663 95.6711C163.177 95.17 162.698 94.7794 162.226 94.4994C161.755 94.2193 161.136 94.0793 160.369 94.0793C159.662 94.0793 158.999 94.3299 158.38 94.831C157.775 95.3174 157.267 95.9512 156.854 96.7323L154.422 95.4058C155.174 94.0351 156.066 93.0181 157.097 92.3549C158.129 91.6769 159.242 91.3379 160.436 91.3379C161.497 91.3379 162.44 91.5369 163.265 91.9348C164.106 92.3328 164.901 92.9444 165.653 93.7698C166.14 94.2709 166.619 94.6615 167.09 94.9415C167.577 95.2216 168.196 95.3616 168.947 95.3616C169.655 95.3616 170.311 95.1184 170.915 94.632C171.534 94.1309 172.05 93.4898 172.463 92.7086L174.894 94.0351C174.143 95.4058 173.251 96.4302 172.219 97.1082C171.188 97.7714 170.075 98.103 168.881 98.103C167.835 98.103 166.891 97.9041 166.051 97.5061C165.211 97.1082 164.415 96.4965 163.663 95.6711Z" fill="#53CAF1"/>
<path d="M137.244 87.3142C137.185 87.5795 137.133 87.8817 137.089 88.2207C137.06 88.5597 137.03 88.8913 137.001 89.2156C136.986 89.5398 136.979 89.8051 136.979 90.0115C136.964 90.4978 136.957 90.999 136.957 91.5148C136.971 92.0307 136.986 92.5613 137.001 93.1066C137.03 93.6372 137.067 94.1678 137.111 94.6984C137.215 95.7596 137.362 96.6955 137.554 97.5062C137.745 98.3168 137.996 98.9506 138.305 99.4075C138.615 99.8497 139.005 100.071 139.477 100.071C139.728 100.071 139.971 99.9307 140.207 99.6507C140.457 99.3706 140.678 99.0095 140.87 98.5674C141.076 98.1105 141.253 97.6315 141.4 97.1303C141.563 96.6292 141.703 96.1576 141.82 95.7154L144.031 98.4126C143.545 99.6949 143.059 100.719 142.572 101.486C142.1 102.237 141.607 102.783 141.091 103.122C140.575 103.446 140.015 103.608 139.411 103.608C138.615 103.608 137.856 103.343 137.133 102.812C136.426 102.282 135.822 101.427 135.321 100.248C134.819 99.0538 134.466 97.4693 134.259 95.4943C134.186 94.8163 134.127 94.1015 134.083 93.3498C134.053 92.5981 134.031 91.8833 134.016 91.2053C134.016 90.5273 134.016 89.9672 134.016 89.5251C134.016 89.2156 134.001 88.8471 133.972 88.4197C133.943 87.9922 133.898 87.609 133.839 87.27L137.244 87.3142ZM148.298 87.8227C148.711 88.3238 149.109 88.9355 149.492 89.6577C149.875 90.3799 150.229 91.1537 150.553 91.9791C150.878 92.8045 151.165 93.652 151.415 94.5215C151.666 95.3764 151.865 96.2165 152.012 97.0419C152.175 97.8525 152.278 98.5969 152.322 99.2748L149.404 100.402C149.33 99.5033 149.197 98.5232 149.006 97.462C148.814 96.4008 148.556 95.3322 148.232 94.2562C147.908 93.1803 147.517 92.1633 147.06 91.2053C146.618 90.2473 146.095 89.4219 145.49 88.7292L148.298 87.8227Z" fill="#53CAF1"/>
<path d="M115.136 87.3142C115.077 87.5795 115.025 87.8817 114.981 88.2207C114.951 88.5597 114.922 88.8913 114.892 89.2156C114.878 89.5398 114.87 89.8051 114.87 90.0115C114.856 90.4978 114.848 90.999 114.848 91.5148C114.863 92.0307 114.878 92.5613 114.892 93.1066C114.922 93.6372 114.959 94.1678 115.003 94.6984C115.106 95.7596 115.254 96.6955 115.445 97.5062C115.637 98.3168 115.887 98.9506 116.197 99.4075C116.506 99.8497 116.897 100.071 117.369 100.071C117.619 100.071 117.862 99.9307 118.098 99.6507C118.349 99.3706 118.57 99.0095 118.761 98.5674C118.968 98.1105 119.145 97.6315 119.292 97.1303C119.454 96.6292 119.594 96.1576 119.712 95.7154L121.923 98.4126C121.437 99.6949 120.95 100.719 120.464 101.486C119.992 102.237 119.498 102.783 118.982 103.122C118.467 103.446 117.907 103.608 117.302 103.608C116.506 103.608 115.747 103.343 115.025 102.812C114.318 102.282 113.713 101.427 113.212 100.248C112.711 99.0538 112.357 97.4693 112.151 95.4943C112.077 94.8163 112.018 94.1015 111.974 93.3498C111.945 92.5981 111.923 91.8833 111.908 91.2053C111.908 90.5273 111.908 89.9672 111.908 89.5251C111.908 89.2156 111.893 88.8471 111.864 88.4197C111.834 87.9922 111.79 87.609 111.731 87.27L115.136 87.3142ZM126.19 87.8227C126.602 88.3238 127 88.9355 127.384 89.6577C127.767 90.3799 128.121 91.1537 128.445 91.9791C128.769 92.8045 129.057 93.652 129.307 94.5215C129.558 95.3764 129.757 96.2165 129.904 97.0419C130.066 97.8525 130.169 98.5969 130.214 99.2748L127.295 100.402C127.222 99.5033 127.089 98.5232 126.897 97.462C126.706 96.4008 126.448 95.3322 126.123 94.2562C125.799 93.1803 125.409 92.1633 124.952 91.2053C124.51 90.2473 123.986 89.4219 123.382 88.7292L126.19 87.8227Z" fill="#53CAF1"/>
<path d="M98.0798 85.4129C97.9914 85.8109 97.9177 86.1646 97.8587 86.4741C97.7998 86.7837 97.7482 87.0858 97.704 87.3806C97.645 87.6901 97.5713 88.1396 97.4829 88.7292C97.4092 89.304 97.3208 89.9599 97.2176 90.6968C97.1292 91.419 97.0334 92.1781 96.9302 92.974C96.8417 93.7552 96.7533 94.5216 96.6649 95.2733C96.5765 96.0249 96.5028 96.7103 96.4438 97.3293C96.3996 97.9484 96.3775 98.4421 96.3775 98.8106C96.3775 99.7244 96.6501 100.425 97.1955 100.911C97.7556 101.383 98.5809 101.618 99.6716 101.618C100.703 101.618 101.573 101.478 102.28 101.198C102.988 100.904 103.526 100.513 103.894 100.027C104.263 99.5402 104.447 98.9948 104.447 98.3905C104.447 97.6389 104.248 96.9093 103.85 96.2018C103.467 95.4796 102.907 94.7795 102.17 94.1015L105.287 93.4383C106.024 94.3668 106.562 95.2512 106.901 96.0913C107.255 96.9166 107.432 97.801 107.432 98.7443C107.432 99.8497 107.115 100.837 106.481 101.707C105.847 102.576 104.941 103.254 103.762 103.741C102.597 104.227 101.204 104.47 99.5832 104.47C98.4336 104.47 97.4092 104.293 96.5101 103.94C95.6111 103.586 94.911 103.026 94.4098 102.259C93.9087 101.493 93.6582 100.498 93.6582 99.2749C93.6582 98.818 93.695 98.2137 93.7687 97.462C93.8424 96.6956 93.9308 95.8554 94.034 94.9416C94.1519 94.0131 94.2698 93.0772 94.3877 92.1339C94.5056 91.1759 94.6088 90.2694 94.6972 89.4146C94.8004 88.5597 94.8815 87.8228 94.9404 87.2037C94.9699 86.6879 94.9847 86.2973 94.9847 86.032C94.9994 85.7519 94.992 85.4866 94.9625 85.2361L98.0798 85.4129ZM90.1871 88.1544C90.8504 88.3607 91.5726 88.5376 92.3538 88.685C93.1349 88.8176 93.9382 88.9208 94.7636 88.9945C95.589 89.0535 96.3701 89.0829 97.1071 89.0829C97.9767 89.0829 98.7873 89.0535 99.539 88.9945C100.291 88.9355 100.947 88.8618 101.507 88.7734L101.418 91.4043C100.755 91.4633 100.092 91.5148 99.4284 91.5591C98.7652 91.6033 97.9693 91.6254 97.0407 91.6254C96.289 91.6254 95.5079 91.5885 94.6972 91.5148C93.8866 91.4264 93.0833 91.3159 92.2874 91.1832C91.4915 91.0358 90.7472 90.8737 90.0545 90.6968L90.1871 88.1544ZM89.7229 93.6372C90.5188 93.9025 91.322 94.1089 92.1327 94.2563C92.9581 94.4037 93.7687 94.5068 94.5646 94.5658C95.3752 94.61 96.149 94.6321 96.886 94.6321C97.564 94.6321 98.2935 94.61 99.0747 94.5658C99.8706 94.5216 100.622 94.4553 101.33 94.3668L101.263 96.9977C100.644 97.0567 100.011 97.1083 99.3621 97.1525C98.7136 97.1819 98.043 97.1967 97.3502 97.1967C95.8764 97.1967 94.4614 97.123 93.1054 96.9756C91.7495 96.8135 90.5704 96.5924 89.5681 96.3124L89.7229 93.6372Z" fill="#53CAF1"/>
<path d="M67.1282 87.9554C67.5703 87.9407 67.9904 87.9259 68.3883 87.9112C68.7863 87.8817 69.0884 87.8596 69.2948 87.8449C69.7517 87.8154 70.3118 87.7712 70.975 87.7122C71.653 87.6385 72.4047 87.5648 73.2301 87.4911C74.0702 87.4174 74.9619 87.3437 75.9052 87.27C76.8485 87.1964 77.8286 87.1153 78.8456 87.0269C79.612 86.9532 80.3711 86.8942 81.1227 86.85C81.8892 86.791 82.6114 86.7468 83.2894 86.7173C83.9821 86.6731 84.5864 86.6436 85.1022 86.6289L85.1244 89.4588C84.7264 89.4588 84.2695 89.4661 83.7536 89.4809C83.2378 89.4956 82.7219 89.5251 82.2061 89.5693C81.7049 89.5988 81.2554 89.6651 80.8574 89.7683C80.1942 89.9452 79.5752 90.2473 79.0003 90.6747C78.4255 91.0874 77.9244 91.5812 77.497 92.156C77.0843 92.7161 76.76 93.3277 76.5242 93.991C76.2884 94.6395 76.1705 95.2954 76.1705 95.9586C76.1705 96.6808 76.2958 97.322 76.5463 97.882C76.8116 98.4274 77.1654 98.899 77.6075 99.297C78.0644 99.6802 78.595 100.004 79.1993 100.27C79.8036 100.52 80.4521 100.712 81.1449 100.845C81.8523 100.977 82.5819 101.066 83.3336 101.11L82.2945 104.139C81.3659 104.08 80.4595 103.932 79.5752 103.697C78.7056 103.461 77.8876 103.136 77.1211 102.724C76.3547 102.311 75.6841 101.81 75.1093 101.22C74.5492 100.616 74.0997 99.9308 73.7607 99.1643C73.4364 98.3832 73.2743 97.5136 73.2743 96.5555C73.2743 95.4943 73.4438 94.5216 73.7828 93.6372C74.1218 92.7382 74.5418 91.957 75.043 91.2938C75.5588 90.6158 76.0673 90.0925 76.5684 89.7241C76.1557 89.783 75.6546 89.842 75.0651 89.9009C74.4902 89.9599 73.8638 90.0336 73.1859 90.122C72.5226 90.1957 71.8446 90.2768 71.1519 90.3652C70.4592 90.4536 69.7885 90.5568 69.14 90.6747C68.5063 90.7779 67.9314 90.8811 67.4156 90.9842L67.1282 87.9554ZM81.9629 91.6254C82.1545 91.8907 82.3534 92.2076 82.5598 92.576C82.7809 92.9298 82.9946 93.2909 83.2009 93.6594C83.4073 94.0131 83.5841 94.3373 83.7315 94.6321L82.0513 95.3838C81.7713 94.7648 81.4986 94.2194 81.2333 93.7478C80.9827 93.2761 80.6806 92.7971 80.3268 92.3107L81.9629 91.6254ZM84.439 90.6084C84.6306 90.8737 84.8369 91.1832 85.058 91.537C85.2939 91.8759 85.5223 92.2297 85.7434 92.5982C85.9645 92.9519 86.1487 93.2688 86.2961 93.5488L84.638 94.3447C84.3432 93.7552 84.0558 93.2319 83.7757 92.775C83.5104 92.3181 83.1936 91.8465 82.8251 91.3601L84.439 90.6084Z" fill="#53CAF1"/>
<path d="M57.352 86.6952C57.2488 86.8426 57.1309 87.0121 56.9982 87.2037C56.8803 87.3806 56.7624 87.5575 56.6445 87.7343C56.3792 88.1323 56.0844 88.5965 55.7602 89.1271C55.4506 89.643 55.1264 90.1957 54.7874 90.7853C54.4484 91.3601 54.1168 91.9349 53.7925 92.5097C53.483 93.0845 53.1882 93.6151 52.9082 94.1015C53.3209 93.8657 53.7409 93.6962 54.1684 93.593C54.5958 93.4899 55.0232 93.4383 55.4506 93.4383C56.276 93.4383 56.9245 93.6888 57.3962 94.19C57.8826 94.6763 58.1479 95.3838 58.1921 96.3124C58.2068 96.6366 58.2142 97.0272 58.2142 97.4841C58.2142 97.941 58.2142 98.3979 58.2142 98.8548C58.2289 99.3117 58.251 99.6949 58.2805 100.004C58.3247 100.432 58.4795 100.741 58.7448 100.933C59.0248 101.11 59.3491 101.198 59.7176 101.198C60.1892 101.198 60.6166 101.058 60.9998 100.778C61.3978 100.498 61.7515 100.115 62.061 99.6286C62.3706 99.1275 62.6359 98.5674 62.8569 97.9484C63.0928 97.3146 63.2917 96.6587 63.4539 95.9807L65.8416 97.9263C65.4583 99.1791 64.972 100.284 64.3824 101.243C63.7929 102.186 63.0707 102.915 62.2158 103.431C61.3757 103.962 60.3882 104.227 59.2533 104.227C58.4426 104.227 57.7647 104.08 57.2193 103.785C56.674 103.505 56.2687 103.136 56.0034 102.68C55.7381 102.208 55.5907 101.699 55.5612 101.154C55.5317 100.756 55.5096 100.314 55.4949 99.8276C55.4949 99.3412 55.4875 98.8696 55.4728 98.4126C55.4728 97.941 55.458 97.5578 55.4285 97.263C55.3991 96.8798 55.2738 96.5777 55.0527 96.3566C54.8316 96.1355 54.5221 96.0249 54.1241 96.0249C53.6378 96.0249 53.1735 96.1797 52.7313 96.4892C52.2892 96.7987 51.8838 97.2041 51.5154 97.7052C51.1616 98.2063 50.8521 98.759 50.5868 99.3633C50.4394 99.6876 50.2847 100.071 50.1225 100.513C49.9604 100.955 49.8057 101.412 49.6583 101.884C49.5109 102.355 49.3709 102.797 49.2382 103.21C49.1056 103.638 48.995 103.999 48.9066 104.293L45.7893 103.232C46.0693 102.495 46.4083 101.655 46.8063 100.712C47.219 99.7539 47.6685 98.7516 48.1549 97.7052C48.6413 96.6587 49.135 95.6196 49.6362 94.5879C50.1373 93.5562 50.6163 92.5834 51.0732 91.6696C51.5301 90.7411 51.9354 89.9378 52.2892 89.2598C52.6576 88.5671 52.9377 88.0438 53.1293 87.6901C53.2767 87.3953 53.4462 87.0637 53.6378 86.6952C53.8294 86.3268 54.021 85.9067 54.2126 85.4351L57.352 86.6952Z" fill="#53CAF1"/>
<path d="M24.322 88.6407C24.7937 88.6996 25.2948 88.7438 25.8254 88.7733C26.3707 88.788 26.8497 88.7954 27.2624 88.7954C28.1762 88.7954 29.0974 88.7438 30.026 88.6407C30.9693 88.5375 31.8757 88.4048 32.7453 88.2427C33.6149 88.0658 34.4034 87.8669 35.1109 87.6458L35.1993 90.2103C34.5655 90.3725 33.8065 90.542 32.9222 90.7188C32.0526 90.881 31.1314 91.021 30.1586 91.1389C29.1859 91.2421 28.2278 91.2937 27.2845 91.2937C26.8424 91.2937 26.3928 91.2863 25.9359 91.2715C25.479 91.2568 25.0074 91.2347 24.521 91.2052L24.322 88.6407ZM32.9222 85.3244C32.8337 85.6929 32.7158 86.1719 32.5684 86.7615C32.421 87.351 32.2515 87.97 32.0599 88.6186C31.8831 89.2671 31.6915 89.9082 31.4851 90.542C31.1609 91.6032 30.7334 92.7307 30.2028 93.9245C29.6722 95.1184 29.0974 96.2828 28.4784 97.4177C27.8594 98.5526 27.233 99.5622 26.5992 100.447L23.9241 99.0758C24.4252 98.4568 24.9189 97.7714 25.4053 97.0197C25.8917 96.268 26.3486 95.4942 26.776 94.6983C27.2035 93.9024 27.5867 93.136 27.9257 92.3991C28.2794 91.6474 28.5595 90.9694 28.7658 90.3651C29.0458 89.5839 29.289 88.7144 29.4954 87.7563C29.7165 86.7836 29.8417 85.8697 29.8712 85.0149L32.9222 85.3244ZM38.0955 92.2001C38.066 92.6717 38.0513 93.1434 38.0513 93.615C38.066 94.0719 38.0808 94.5436 38.0955 95.03C38.1102 95.369 38.125 95.8038 38.1397 96.3344C38.1692 96.8502 38.1987 97.4029 38.2282 97.9925C38.2576 98.5673 38.2797 99.12 38.2945 99.6506C38.324 100.166 38.3387 100.579 38.3387 100.889C38.3387 101.567 38.1987 102.186 37.9186 102.746C37.6386 103.291 37.1891 103.726 36.57 104.05C35.9657 104.374 35.133 104.537 34.0718 104.537C33.158 104.537 32.3326 104.397 31.5957 104.116C30.8587 103.851 30.2692 103.453 29.827 102.923C29.3848 102.377 29.1637 101.699 29.1637 100.889C29.1637 100.166 29.3554 99.518 29.7386 98.9431C30.1218 98.3536 30.6745 97.8967 31.3967 97.5724C32.1336 97.2334 33.018 97.0639 34.0497 97.0639C35.3467 97.0639 36.5406 97.2482 37.6312 97.6166C38.7219 97.9704 39.7021 98.4273 40.5716 98.9874C41.4412 99.5474 42.1856 100.108 42.8046 100.668L41.3233 103.033C40.9254 102.679 40.4685 102.281 39.9526 101.839C39.4515 101.397 38.884 100.984 38.2503 100.601C37.6312 100.218 36.9532 99.9012 36.2163 99.6506C35.4941 99.4 34.7129 99.2748 33.8728 99.2748C33.239 99.2748 32.7306 99.4 32.3473 99.6506C31.9641 99.9012 31.7725 100.225 31.7725 100.623C31.7725 101.036 31.9347 101.368 32.2589 101.618C32.5979 101.869 33.0696 101.994 33.6738 101.994C34.175 101.994 34.5729 101.913 34.8677 101.751C35.1625 101.574 35.3688 101.331 35.4867 101.021C35.6046 100.697 35.6636 100.336 35.6636 99.938C35.6636 99.599 35.6489 99.12 35.6194 98.501C35.5899 97.8819 35.5531 97.1966 35.5088 96.4449C35.4794 95.6932 35.4499 94.9415 35.4204 94.1898C35.3909 93.4382 35.3614 92.7749 35.332 92.2001H38.0955ZM41.8981 93.3718C41.4707 93.0181 40.9401 92.6423 40.3063 92.2443C39.6726 91.8464 39.0167 91.4705 38.3387 91.1168C37.6755 90.7483 37.0933 90.4535 36.5921 90.2325L38.0071 88.0437C38.405 88.2206 38.8546 88.4417 39.3557 88.707C39.8715 88.9575 40.3874 89.2228 40.9033 89.5029C41.4339 89.7829 41.9202 90.063 42.3624 90.343C42.8193 90.6083 43.1878 90.8441 43.4678 91.0505L41.8981 93.3718Z" fill="#53CAF1"/>
</svg>
