<svg width="181" height="144" viewBox="0 0 181 144" fill="none" xmlns="http://www.w3.org/2000/svg">
<path d="M177.287 59.4142C177.287 94.8933 138.067 139.049 89.6865 139.049C41.3059 139.049 2.08569 94.8933 2.08569 59.4142C2.08569 59.4142 41.3059 47.2766 89.6865 47.2766C138.067 47.2766 177.287 59.4142 177.287 59.4142Z" fill="white"/>
<rect x="63.9625" y="128.62" width="53.5338" height="15.2954" rx="6" fill="white"/>
<path d="M90.3818 44.0194C115.223 44.0194 137.639 45.764 153.779 48.5575C161.874 49.9585 168.246 51.5997 172.524 53.3505C174.677 54.2314 176.128 55.0716 176.99 55.8007C177.535 56.2613 177.702 56.55 177.75 56.662C177.702 56.7735 177.536 57.0627 176.99 57.5243C176.128 58.2533 174.677 59.0935 172.524 59.9745C168.246 61.7253 161.874 63.3665 153.779 64.7675C137.639 67.561 115.223 69.3055 90.3818 69.3055C65.5407 69.3055 43.1241 67.561 26.9834 64.7675C18.8891 63.3665 12.5178 61.7252 8.23926 59.9745C6.08643 59.0935 4.6354 58.2533 3.77344 57.5243C3.22716 57.0622 3.0602 56.7732 3.0127 56.662C3.06061 56.5502 3.22837 56.2617 3.77344 55.8007C4.6354 55.0716 6.08643 54.2314 8.23926 53.3505C12.5178 51.5997 18.8891 49.9585 26.9834 48.5575C43.1241 45.7639 65.5407 44.0194 90.3818 44.0194Z" fill="white" stroke="#53CAF1" stroke-width="6"/>
<path d="M128.62 44.148C128.62 70.0662 111.781 74.0435 85.8627 74.0435C59.9445 74.0435 48.1593 67.235 44.8433 46.2338C41.7147 26.4193 59.9445 0 85.8627 0C111.781 0 128.62 18.2299 128.62 44.148Z" fill="#E30000"/>
<path d="M68.4858 14.8333C69.5957 13.7234 73.0049 12.7476 75.0906 13.4429C77.9275 14.3885 77.8716 16.9191 75.0906 17.6143C72.3096 18.3096 71.2668 17.366 69.5286 17.6143C67.7905 17.8626 66.4 16.9191 68.4858 14.8333Z" fill="white"/>
<path d="M103.96 14.8333C102.85 13.7234 99.4409 12.7476 97.3552 13.4429C94.5183 14.3885 94.5742 16.9191 97.3552 17.6143C100.136 18.3096 101.179 17.366 102.917 17.6143C104.655 17.8626 106.046 16.9191 103.96 14.8333Z" fill="white"/>
<path d="M83.9411 22.3039C83.3468 23.7567 83.7652 27.278 85.2129 28.9326C87.1821 31.1831 89.4941 30.1529 89.0599 27.3194C88.6256 24.486 87.3522 23.8891 86.9091 22.1902C86.4659 20.4913 85.058 19.5738 83.9411 22.3039Z" fill="white"/>
<path d="M90.2052 37.9393C88.9125 37.0487 85.3831 36.7067 83.4578 37.7683C80.8391 39.2122 81.3525 41.6908 84.2135 41.8707C87.0744 42.0507 87.929 40.9338 89.6834 40.8632C91.4377 40.7925 92.6343 39.6127 90.2052 37.9393Z" fill="white"/>
<path d="M47.5906 63.7326C48.4479 66.3938 48.1688 70.7441 43.466 73.7986C37.5875 77.6168 29.1371 75.8813 26.5653 68.9392C23.9934 61.9971 27.523 58.7411 34.364 59.1264C40.9773 59.4989 46.2042 60.6087 47.5906 63.7326Z" fill="#E30000"/>
<path d="M150.973 60.9285C152.369 63.3509 153.008 67.6632 149.049 71.6353C144.101 76.6005 135.475 76.6742 131.505 70.4251C127.536 64.1761 130.305 60.2527 137.075 59.196C143.619 58.1745 148.963 58.1644 150.973 60.9285Z" fill="#E30000"/>
</svg>
