<svg width="538" height="252" viewBox="0 0 538 252" fill="none" xmlns="http://www.w3.org/2000/svg">
<path d="M436.979 110.774C438.223 105.331 440.272 100.918 443.124 97.535C446.107 94.1989 449.534 91.4665 453.404 89.3377C457.404 87.2563 461.57 85.5299 465.901 84.1586C470.362 82.8346 474.54 81.4809 478.433 80.0976C482.457 78.7617 485.919 77.1475 488.818 75.2551C491.718 73.3627 493.736 70.8547 494.873 67.7311C496.294 63.8266 496.526 60.1525 495.568 56.7088C494.611 53.2652 492.506 50.1406 489.252 47.3352C486.129 44.5772 481.965 42.2508 476.759 40.356C470.772 38.177 464.832 37.4889 458.939 38.2918C453.046 39.0947 446.768 41.1577 440.105 44.4808L429.497 23.8173C438.349 18.9329 447.787 15.8827 457.81 14.6669C468.01 13.3683 478.251 14.5901 488.533 18.3323C498.034 21.7904 505.908 26.2774 512.154 31.7934C518.53 37.3568 522.735 43.8248 524.768 51.1974C526.979 58.4871 526.497 66.492 523.323 75.212C521.571 80.0275 518.99 83.8784 515.581 86.7646C512.35 89.5681 508.586 91.8094 504.29 93.4884C500.172 95.0846 495.882 96.5447 491.421 97.8687C487.007 99.0625 482.805 100.481 478.817 102.125C474.829 103.768 471.373 105.974 468.45 108.742C465.526 111.51 463.431 115.243 462.163 119.94L436.979 110.774ZM430.768 167.322C425.822 165.522 422.315 162.403 420.245 157.965C418.176 153.527 418.041 148.835 419.841 143.89C421.689 138.814 424.831 135.241 429.269 133.172C433.707 131.102 438.399 130.968 443.345 132.768C448.29 134.568 451.798 137.687 453.867 142.125C455.937 146.563 456.048 151.32 454.2 156.396C452.4 161.341 449.281 164.849 444.843 166.918C440.405 168.988 435.714 169.122 430.768 167.322Z" fill="white"/>
<path d="M348.739 45.1089C348.075 46.0587 347.315 47.1508 346.46 48.3855C345.7 49.5252 344.941 50.6648 344.181 51.8045C342.471 54.3688 340.572 57.3604 338.482 60.7794C336.488 64.1034 334.399 67.6649 332.214 71.4638C330.03 75.1678 327.893 78.8717 325.804 82.5756C323.809 86.2796 321.91 89.6986 320.105 92.8327C322.764 91.3131 325.471 90.2209 328.225 89.5561C330.98 88.8913 333.734 88.5589 336.488 88.5589C341.806 88.5589 345.985 90.1734 349.024 93.4025C352.158 96.5366 353.868 101.095 354.153 107.079C354.248 109.168 354.295 111.685 354.295 114.629C354.295 117.573 354.295 120.517 354.295 123.461C354.39 126.405 354.533 128.875 354.723 130.869C355.008 133.623 356.005 135.618 357.714 136.852C359.519 137.992 361.608 138.562 363.983 138.562C367.022 138.562 369.776 137.66 372.245 135.855C374.809 134.051 377.089 131.581 379.083 128.447C381.078 125.218 382.787 121.609 384.212 117.621C385.731 113.537 387.013 109.31 388.058 104.942L403.444 117.478C400.974 125.551 397.84 132.674 394.041 138.847C390.242 144.925 385.589 149.626 380.08 152.95C374.667 156.369 368.304 158.079 360.991 158.079C355.767 158.079 351.399 157.129 347.885 155.23C344.371 153.425 341.759 151.051 340.049 148.107C338.34 145.068 337.39 141.791 337.2 138.277C337.01 135.713 336.868 132.864 336.773 129.73C336.773 126.595 336.725 123.556 336.63 120.612C336.63 117.573 336.535 115.104 336.345 113.204C336.156 110.735 335.348 108.788 333.924 107.363C332.499 105.939 330.505 105.227 327.94 105.227C324.806 105.227 321.815 106.224 318.966 108.218C316.116 110.213 313.505 112.824 311.13 116.053C308.851 119.283 306.857 122.844 305.147 126.738C304.197 128.827 303.2 131.297 302.155 134.146C301.111 136.995 300.113 139.939 299.164 142.978C298.214 146.017 297.312 148.867 296.457 151.526C295.602 154.28 294.89 156.607 294.32 158.506L274.233 151.668C276.038 146.92 278.222 141.506 280.786 135.428C283.446 129.255 286.342 122.797 289.477 116.053C292.611 109.31 295.792 102.615 299.021 95.9668C302.25 89.3187 305.337 83.0505 308.281 77.1622C311.225 71.1789 313.837 66.0029 316.116 61.6342C318.491 57.1704 320.295 53.7989 321.53 51.5196C322.479 49.6201 323.572 47.4832 324.806 45.1089C326.041 42.7346 327.276 40.0279 328.51 36.9888L348.739 45.1089Z" fill="white"/>
<path d="M179.783 63.4861C183.867 63.866 187.951 64.1984 192.035 64.4833C196.213 64.6732 200.44 64.7682 204.714 64.7682C213.451 64.7682 222.141 64.3883 230.783 63.6285C239.426 62.8688 247.404 61.6816 254.717 60.0671V77.8744C247.309 78.9191 239.284 79.7739 230.641 80.4387C221.999 81.0085 213.356 81.2935 204.714 81.2935C200.535 81.2935 196.356 81.246 192.177 81.151C188.093 80.9611 183.962 80.7236 179.783 80.4387V63.4861ZM233.918 39.4105C233.728 40.7401 233.538 42.2122 233.348 43.8268C233.253 45.4413 233.158 47.0558 233.063 48.6704C232.968 50.1899 232.873 52.2318 232.778 54.7961C232.683 57.3604 232.635 60.257 232.635 63.4861C232.635 66.6202 232.635 69.9442 232.635 73.4582C232.635 79.9163 232.73 85.9946 232.92 91.693C233.11 97.2963 233.348 102.52 233.633 107.363C233.918 112.112 234.155 116.481 234.345 120.47C234.63 124.459 234.772 128.162 234.772 131.581C234.772 135.285 234.25 138.704 233.205 141.839C232.256 144.973 230.689 147.727 228.504 150.101C226.32 152.475 223.423 154.28 219.814 155.515C216.3 156.844 211.979 157.509 206.85 157.509C196.973 157.509 189.185 155.515 183.487 151.526C177.789 147.537 174.94 141.791 174.94 134.288C174.94 129.445 176.222 125.218 178.786 121.609C181.35 117.905 185.007 115.056 189.755 113.062C194.504 110.972 200.107 109.928 206.565 109.928C213.309 109.928 219.434 110.64 224.943 112.065C230.451 113.489 235.485 115.389 240.043 117.763C244.602 120.137 248.638 122.749 252.152 125.598C255.761 128.352 258.99 131.012 261.84 133.576L252.01 148.534C246.596 143.406 241.325 138.989 236.197 135.285C231.068 131.581 225.94 128.732 220.811 126.738C215.778 124.743 210.554 123.746 205.141 123.746C201.152 123.746 197.875 124.506 195.311 126.026C192.842 127.545 191.607 129.682 191.607 132.436C191.607 135.285 192.889 137.375 195.454 138.704C198.018 140.034 201.152 140.699 204.856 140.699C207.8 140.699 210.127 140.224 211.836 139.274C213.546 138.23 214.733 136.757 215.398 134.858C216.158 132.864 216.538 130.489 216.538 127.735C216.538 125.266 216.443 122.037 216.253 118.048C216.063 114.059 215.825 109.595 215.54 104.657C215.35 99.7181 215.16 94.5896 214.971 89.2712C214.781 83.8577 214.686 78.5867 214.686 73.4582C214.686 68.0448 214.638 63.1537 214.543 58.7849C214.543 54.3212 214.543 50.9972 214.543 48.8128C214.543 47.7681 214.448 46.296 214.258 44.3966C214.068 42.4971 213.831 40.8351 213.546 39.4105H233.918ZM164.398 40.9776C164.113 41.9273 163.685 43.2569 163.116 44.9664C162.641 46.6759 162.213 48.338 161.833 49.9525C161.548 51.567 161.311 52.8017 161.121 53.6564C160.646 55.6508 160.124 58.3576 159.554 61.7766C158.984 65.1006 158.367 68.8995 157.702 73.1733C157.132 77.3521 156.562 81.6733 155.993 86.1371C155.423 90.5058 154.995 94.6846 154.71 98.6734C154.426 102.567 154.283 105.939 154.283 108.788C154.283 110.213 154.283 111.78 154.283 113.489C154.378 115.104 154.568 116.623 154.853 118.048C155.518 116.338 156.182 114.676 156.847 113.062C157.607 111.447 158.367 109.833 159.127 108.218C159.886 106.604 160.599 104.989 161.264 103.375L169.954 110.498C168.624 114.391 167.247 118.475 165.822 122.749C164.493 127.023 163.258 131.059 162.118 134.858C161.074 138.657 160.266 141.838 159.696 144.403C159.507 145.352 159.317 146.492 159.127 147.822C159.032 149.151 158.984 150.244 158.984 151.098C158.984 151.858 158.984 152.76 158.984 153.805C159.079 154.945 159.174 155.989 159.269 156.939L143.171 158.221C141.652 153.188 140.322 146.777 139.182 138.989C138.043 131.107 137.473 122.322 137.473 112.634C137.473 107.316 137.71 101.76 138.185 95.9667C138.66 90.0784 139.182 84.4275 139.752 79.0141C140.417 73.6007 141.082 68.6621 141.747 64.1984C142.411 59.6397 142.934 55.9832 143.314 53.229C143.599 51.2346 143.884 49.0028 144.168 46.5335C144.453 43.9692 144.643 41.5474 144.738 39.2681L164.398 40.9776Z" fill="white"/>
<path d="M9.54475 48.8129C14.7682 49.4777 20.6565 49.9526 27.2097 50.2375C33.7628 50.5224 40.7907 50.6649 48.2936 50.6649C53.0422 50.6649 57.8858 50.5699 62.8244 50.38C67.763 50.19 72.5591 49.9526 77.2127 49.6677C81.8664 49.2878 85.9977 48.9554 89.6067 48.6705V67.6175C86.2826 67.8075 82.2463 68.0449 77.4977 68.3298C72.844 68.6147 67.9529 68.8522 62.8244 69.0421C57.7908 69.232 52.9947 69.327 48.436 69.327C41.0282 69.327 34.1427 69.1846 27.7795 68.8996C21.4163 68.5197 15.3381 68.1399 9.54475 67.76V48.8129ZM21.5113 109.216C20.8465 111.685 20.2767 114.107 19.8018 116.481C19.3269 118.855 19.0895 121.23 19.0895 123.604C19.0895 128.258 21.3688 132.056 25.9275 135.001C30.5812 137.85 38.0365 139.274 48.2936 139.274C54.7517 139.274 60.9724 139.037 66.9557 138.562C73.0339 138.087 78.7323 137.47 84.0508 136.71C89.3692 135.855 94.1179 134.858 98.2967 133.718L98.4391 153.663C94.3553 154.612 89.7016 155.467 84.4781 156.227C79.3496 156.987 73.7937 157.557 67.8104 157.936C61.9221 158.411 55.654 158.649 49.0059 158.649C38.084 158.649 29.0141 157.414 21.7962 154.945C14.5783 152.571 9.11737 149.152 5.41344 144.688C1.80448 140.129 0 134.573 0 128.02C0 123.936 0.332403 120.185 0.997211 116.766C1.66202 113.252 2.23186 110.165 2.70672 107.506L21.5113 109.216ZM93.3106 34.1397C94.5452 35.8492 95.8274 37.8911 97.157 40.2654C98.5816 42.6397 99.9587 45.014 101.288 47.3883C102.618 49.7627 103.758 51.8521 104.707 53.6565L93.1681 58.6426C91.7435 55.6984 89.9865 52.3269 87.8972 48.528C85.9027 44.7291 83.9558 41.4525 82.0563 38.6983L93.3106 34.1397ZM110.263 27.729C111.498 29.5335 112.827 31.6229 114.252 33.9972C115.677 36.3715 117.054 38.7458 118.383 41.1201C119.808 43.3995 120.948 45.3939 121.802 47.1034L110.406 51.947C108.886 49.0029 107.082 45.6788 104.992 41.9749C102.903 38.176 100.861 34.9469 98.8665 32.2877L110.263 27.729Z" fill="white"/>
<path d="M395.472 230.446C394.297 229.235 393.139 228.291 391.999 227.615C390.86 226.938 389.364 226.6 387.512 226.6C385.802 226.6 384.2 227.205 382.704 228.416C381.244 229.591 380.015 231.123 379.018 233.01L373.141 229.805C374.958 226.493 377.112 224.035 379.605 222.433C382.098 220.794 384.787 219.975 387.672 219.975C390.236 219.975 392.516 220.456 394.51 221.418C396.54 222.379 398.463 223.857 400.28 225.852C401.455 227.063 402.613 228.006 403.752 228.683C404.927 229.36 406.423 229.698 408.24 229.698C409.949 229.698 411.534 229.111 412.994 227.935C414.49 226.724 415.737 225.175 416.734 223.288L422.61 226.493C420.794 229.805 418.639 232.28 416.146 233.919C413.653 235.521 410.964 236.323 408.079 236.323C405.551 236.323 403.271 235.842 401.241 234.88C399.211 233.919 397.288 232.44 395.472 230.446Z" fill="white"/>
<path d="M331.632 210.252C331.49 210.894 331.365 211.624 331.258 212.443C331.187 213.262 331.116 214.063 331.045 214.847C331.009 215.63 330.991 216.271 330.991 216.77C330.956 217.945 330.938 219.156 330.938 220.403C330.974 221.649 331.009 222.931 331.045 224.249C331.116 225.531 331.205 226.813 331.312 228.095C331.561 230.66 331.917 232.921 332.38 234.88C332.843 236.839 333.449 238.37 334.197 239.474C334.945 240.543 335.888 241.077 337.028 241.077C337.633 241.077 338.221 240.739 338.791 240.062C339.396 239.385 339.931 238.513 340.394 237.444C340.892 236.34 341.32 235.183 341.676 233.972C342.068 232.761 342.406 231.621 342.691 230.553L348.033 237.07C346.858 240.169 345.682 242.644 344.507 244.496C343.367 246.312 342.174 247.63 340.928 248.449C339.681 249.233 338.328 249.625 336.868 249.625C334.945 249.625 333.11 248.983 331.365 247.701C329.656 246.419 328.196 244.354 326.985 241.504C325.774 238.62 324.919 234.791 324.42 230.019C324.242 228.38 324.1 226.653 323.993 224.837C323.922 223.02 323.868 221.293 323.833 219.655C323.833 218.016 323.833 216.663 323.833 215.595C323.833 214.847 323.797 213.956 323.726 212.924C323.655 211.891 323.548 210.965 323.405 210.146L331.632 210.252ZM358.343 211.481C359.341 212.692 360.302 214.17 361.228 215.915C362.154 217.66 363.009 219.53 363.792 221.525C364.576 223.519 365.27 225.567 365.876 227.668C366.481 229.734 366.962 231.764 367.318 233.758C367.71 235.717 367.959 237.516 368.066 239.154L361.015 241.878C360.836 239.706 360.516 237.337 360.053 234.773C359.59 232.209 358.967 229.627 358.183 227.027C357.4 224.427 356.456 221.97 355.352 219.655C354.283 217.34 353.019 215.345 351.559 213.671L358.343 211.481Z" fill="white"/>
<path d="M278.21 210.252C278.068 210.894 277.943 211.624 277.836 212.443C277.765 213.262 277.694 214.063 277.623 214.847C277.587 215.63 277.569 216.271 277.569 216.77C277.534 217.945 277.516 219.156 277.516 220.403C277.551 221.649 277.587 222.931 277.623 224.249C277.694 225.531 277.783 226.813 277.89 228.095C278.139 230.66 278.495 232.921 278.958 234.88C279.421 236.839 280.027 238.37 280.775 239.474C281.522 240.543 282.466 241.077 283.606 241.077C284.211 241.077 284.799 240.739 285.369 240.062C285.974 239.385 286.509 238.513 286.972 237.444C287.47 236.34 287.897 235.183 288.254 233.972C288.645 232.761 288.984 231.621 289.269 230.553L294.611 237.07C293.436 240.169 292.26 242.644 291.085 244.496C289.945 246.312 288.752 247.63 287.506 248.449C286.259 249.233 284.906 249.625 283.446 249.625C281.522 249.625 279.688 248.983 277.943 247.701C276.234 246.419 274.773 244.354 273.563 241.504C272.352 238.62 271.497 234.791 270.998 230.019C270.82 228.38 270.678 226.653 270.571 224.837C270.5 223.02 270.446 221.293 270.411 219.655C270.411 218.016 270.411 216.663 270.411 215.595C270.411 214.847 270.375 213.956 270.304 212.924C270.233 211.891 270.126 210.965 269.983 210.146L278.21 210.252ZM304.921 211.481C305.919 212.692 306.88 214.17 307.806 215.915C308.732 217.66 309.587 219.53 310.37 221.525C311.154 223.519 311.848 225.567 312.454 227.668C313.059 229.734 313.54 231.764 313.896 233.758C314.288 235.717 314.537 237.516 314.644 239.154L307.592 241.878C307.414 239.706 307.094 237.337 306.631 234.773C306.168 232.209 305.545 229.627 304.761 227.027C303.978 224.427 303.034 221.97 301.93 219.655C300.861 217.34 299.597 215.345 298.137 213.671L304.921 211.481Z" fill="white"/>
<path d="M236.997 205.658C236.783 206.62 236.605 207.475 236.463 208.222C236.32 208.97 236.195 209.7 236.089 210.413C235.946 211.161 235.768 212.247 235.554 213.672C235.376 215.06 235.163 216.645 234.913 218.426C234.7 220.171 234.468 222.005 234.219 223.929C234.005 225.816 233.792 227.668 233.578 229.484C233.364 231.301 233.186 232.957 233.044 234.453C232.937 235.949 232.883 237.142 232.883 238.032C232.883 240.24 233.542 241.932 234.86 243.107C236.213 244.247 238.208 244.817 240.843 244.817C243.336 244.817 245.438 244.478 247.147 243.802C248.857 243.089 250.156 242.146 251.047 240.97C251.937 239.795 252.382 238.477 252.382 237.017C252.382 235.201 251.902 233.438 250.94 231.728C250.014 229.983 248.661 228.291 246.88 226.653L254.412 225.05C256.193 227.294 257.493 229.431 258.312 231.461C259.167 233.456 259.594 235.592 259.594 237.872C259.594 240.543 258.829 242.929 257.297 245.03C255.766 247.132 253.575 248.77 250.726 249.945C247.913 251.12 244.547 251.708 240.63 251.708C237.852 251.708 235.376 251.281 233.204 250.426C231.031 249.571 229.34 248.218 228.129 246.366C226.918 244.514 226.312 242.11 226.312 239.154C226.312 238.05 226.401 236.59 226.58 234.773C226.758 232.921 226.971 230.891 227.221 228.683C227.505 226.439 227.79 224.178 228.075 221.899C228.36 219.584 228.61 217.393 228.823 215.328C229.073 213.262 229.268 211.481 229.411 209.985C229.482 208.739 229.518 207.795 229.518 207.154C229.553 206.477 229.536 205.836 229.464 205.231L236.997 205.658ZM217.925 212.283C219.528 212.781 221.273 213.209 223.161 213.565C225.048 213.885 226.989 214.135 228.984 214.313C230.978 214.455 232.866 214.526 234.646 214.526C236.748 214.526 238.706 214.455 240.523 214.313C242.339 214.17 243.924 213.992 245.277 213.778L245.064 220.136C243.461 220.278 241.858 220.403 240.256 220.51C238.653 220.616 236.73 220.67 234.486 220.67C232.67 220.67 230.782 220.581 228.823 220.403C226.864 220.189 224.923 219.922 223 219.601C221.077 219.245 219.278 218.853 217.605 218.426L217.925 212.283ZM216.803 225.531C218.726 226.172 220.667 226.671 222.626 227.027C224.621 227.383 226.58 227.632 228.503 227.775C230.462 227.882 232.331 227.935 234.112 227.935C235.75 227.935 237.513 227.882 239.401 227.775C241.324 227.668 243.14 227.508 244.85 227.294L244.69 233.651C243.194 233.794 241.662 233.918 240.095 234.025C238.528 234.097 236.908 234.132 235.234 234.132C231.672 234.132 228.253 233.954 224.977 233.598C221.7 233.206 218.851 232.672 216.429 231.995L216.803 225.531Z" fill="white"/>
<path d="M162.206 211.802C163.274 211.766 164.289 211.731 165.251 211.695C166.213 211.624 166.943 211.57 167.441 211.535C168.545 211.463 169.899 211.357 171.501 211.214C173.14 211.036 174.956 210.858 176.95 210.68C178.98 210.502 181.135 210.324 183.414 210.146C185.694 209.968 188.062 209.772 190.52 209.558C192.372 209.38 194.206 209.238 196.022 209.131C197.874 208.988 199.619 208.881 201.257 208.81C202.931 208.703 204.392 208.632 205.638 208.596L205.691 215.434C204.73 215.434 203.626 215.452 202.379 215.488C201.133 215.523 199.886 215.595 198.64 215.702C197.429 215.773 196.343 215.933 195.381 216.182C193.778 216.61 192.283 217.34 190.894 218.373C189.505 219.37 188.294 220.563 187.261 221.952C186.264 223.305 185.48 224.783 184.91 226.386C184.34 227.953 184.056 229.538 184.056 231.141C184.056 232.886 184.358 234.435 184.964 235.788C185.605 237.106 186.459 238.246 187.528 239.207C188.632 240.133 189.914 240.917 191.374 241.558C192.835 242.163 194.402 242.626 196.075 242.947C197.785 243.267 199.548 243.481 201.364 243.588L198.853 250.907C196.61 250.764 194.419 250.408 192.283 249.838C190.181 249.268 188.205 248.485 186.353 247.488C184.501 246.491 182.88 245.28 181.491 243.855C180.138 242.395 179.052 240.739 178.232 238.887C177.449 236.999 177.057 234.898 177.057 232.583C177.057 230.019 177.467 227.668 178.286 225.531C179.105 223.359 180.12 221.471 181.331 219.868C182.577 218.23 183.806 216.966 185.017 216.076C184.02 216.218 182.809 216.36 181.384 216.503C179.995 216.645 178.482 216.823 176.844 217.037C175.241 217.215 173.603 217.411 171.929 217.625C170.255 217.838 168.634 218.088 167.067 218.373C165.536 218.622 164.147 218.871 162.9 219.121L162.206 211.802ZM198.052 220.67C198.515 221.311 198.996 222.077 199.494 222.967C200.029 223.822 200.545 224.694 201.044 225.585C201.542 226.439 201.97 227.223 202.326 227.935L198.266 229.752C197.589 228.256 196.93 226.938 196.289 225.798C195.684 224.659 194.954 223.501 194.099 222.326L198.052 220.67ZM204.035 218.212C204.498 218.853 204.997 219.601 205.531 220.456C206.101 221.275 206.653 222.13 207.187 223.02C207.721 223.875 208.167 224.641 208.523 225.318L204.516 227.241C203.804 225.816 203.109 224.552 202.433 223.448C201.792 222.344 201.026 221.204 200.136 220.029L204.035 218.212Z" fill="white"/>
<path d="M138.583 208.757C138.334 209.113 138.049 209.522 137.728 209.985C137.443 210.413 137.158 210.84 136.873 211.268C136.232 212.229 135.52 213.351 134.736 214.633C133.989 215.88 133.205 217.215 132.386 218.64C131.567 220.029 130.765 221.418 129.982 222.807C129.234 224.196 128.522 225.478 127.845 226.653C128.842 226.083 129.857 225.674 130.89 225.424C131.923 225.175 132.956 225.05 133.989 225.05C135.983 225.05 137.55 225.656 138.69 226.867C139.865 228.042 140.506 229.752 140.613 231.995C140.648 232.779 140.666 233.723 140.666 234.827C140.666 235.931 140.666 237.035 140.666 238.139C140.702 239.243 140.755 240.169 140.827 240.917C140.933 241.95 141.307 242.698 141.948 243.161C142.625 243.588 143.409 243.802 144.299 243.802C145.439 243.802 146.471 243.463 147.397 242.787C148.359 242.11 149.214 241.184 149.962 240.009C150.71 238.798 151.351 237.444 151.885 235.949C152.455 234.417 152.936 232.832 153.327 231.194L159.097 235.895C158.171 238.922 156.996 241.594 155.571 243.908C154.146 246.188 152.401 247.951 150.336 249.197C148.306 250.479 145.919 251.12 143.177 251.12C141.218 251.12 139.58 250.764 138.262 250.052C136.945 249.375 135.965 248.485 135.324 247.381C134.683 246.241 134.327 245.013 134.256 243.695C134.184 242.733 134.131 241.665 134.095 240.489C134.095 239.314 134.078 238.174 134.042 237.07C134.042 235.931 134.006 235.005 133.935 234.292C133.864 233.367 133.561 232.636 133.027 232.102C132.493 231.568 131.745 231.301 130.783 231.301C129.608 231.301 128.486 231.675 127.418 232.423C126.349 233.171 125.37 234.15 124.479 235.361C123.625 236.572 122.877 237.907 122.236 239.368C121.88 240.151 121.506 241.077 121.114 242.146C120.722 243.214 120.348 244.318 119.992 245.458C119.636 246.597 119.297 247.666 118.977 248.663C118.656 249.696 118.389 250.568 118.176 251.281L110.643 248.716C111.32 246.936 112.139 244.906 113.1 242.626C114.098 240.311 115.184 237.89 116.359 235.361C117.535 232.832 118.728 230.321 119.939 227.828C121.149 225.335 122.307 222.985 123.411 220.777C124.515 218.533 125.494 216.592 126.349 214.954C127.24 213.28 127.916 212.015 128.379 211.161C128.735 210.448 129.145 209.647 129.608 208.757C130.071 207.866 130.534 206.851 130.997 205.712L138.583 208.757Z" fill="white"/>
<path d="M58.7703 213.458C59.9099 213.6 61.1208 213.707 62.403 213.778C63.7207 213.814 64.8782 213.832 65.8754 213.832C68.0835 213.832 70.3094 213.707 72.5532 213.458C74.8325 213.209 77.0228 212.888 79.1241 212.496C81.2253 212.069 83.1307 211.588 84.8402 211.054L85.0539 217.251C83.5225 217.643 81.6883 218.052 79.5514 218.48C77.4502 218.871 75.2243 219.21 72.8737 219.495C70.5231 219.744 68.2082 219.869 65.9288 219.869C64.8604 219.869 63.7741 219.851 62.6701 219.815C61.566 219.779 60.4263 219.726 59.2511 219.655L58.7703 213.458ZM79.5514 205.445C79.3378 206.335 79.0528 207.492 78.6967 208.917C78.3405 210.342 77.931 211.837 77.468 213.404C77.0406 214.972 76.5776 216.521 76.079 218.052C75.2955 220.616 74.2627 223.341 72.9805 226.226C71.6984 229.111 70.3094 231.924 68.8136 234.666C67.3178 237.409 65.8042 239.848 64.2727 241.985L57.8087 238.673C59.0196 237.177 60.2126 235.521 61.3879 233.705C62.5632 231.889 63.6673 230.019 64.7001 228.096C65.7329 226.172 66.6589 224.32 67.4781 222.54C68.3328 220.723 69.0095 219.085 69.5081 217.625C70.1848 215.737 70.7724 213.636 71.271 211.321C71.8052 208.97 72.108 206.762 72.1792 204.697L79.5514 205.445ZM92.0522 222.059C91.981 223.199 91.9454 224.338 91.9454 225.478C91.981 226.582 92.0166 227.722 92.0522 228.897C92.0878 229.716 92.1234 230.767 92.1591 232.049C92.2303 233.295 92.3015 234.631 92.3727 236.055C92.444 237.444 92.4974 238.78 92.533 240.062C92.6042 241.309 92.6399 242.306 92.6399 243.054C92.6399 244.692 92.3015 246.188 91.6248 247.541C90.9482 248.859 89.8619 249.91 88.3661 250.693C86.9059 251.477 84.8937 251.868 82.3294 251.868C80.1213 251.868 78.1269 251.53 76.3461 250.853C74.5654 250.212 73.1408 249.251 72.0724 247.969C71.0039 246.651 70.4697 245.013 70.4697 243.054C70.4697 241.309 70.9327 239.742 71.8587 238.353C72.7846 236.928 74.1202 235.824 75.8653 235.04C77.6461 234.221 79.7829 233.812 82.276 233.812C85.4101 233.812 88.2949 234.257 90.9304 235.147C93.5658 236.002 95.9342 237.106 98.0355 238.459C100.137 239.813 101.935 241.166 103.431 242.52L99.8518 248.236C98.8902 247.381 97.7862 246.419 96.5397 245.351C95.3288 244.282 93.9576 243.285 92.4262 242.359C90.9304 241.433 89.2921 240.668 87.5113 240.062C85.7662 239.457 83.8786 239.154 81.8486 239.154C80.3172 239.154 79.0885 239.457 78.1625 240.062C77.2365 240.668 76.7735 241.451 76.7735 242.413C76.7735 243.41 77.1653 244.211 77.9488 244.817C78.7679 245.422 79.9076 245.725 81.3678 245.725C82.5787 245.725 83.5403 245.529 84.2526 245.137C84.9649 244.71 85.4635 244.122 85.7484 243.374C86.0333 242.591 86.1758 241.718 86.1758 240.757C86.1758 239.937 86.1402 238.78 86.0689 237.284C85.9977 235.788 85.9087 234.132 85.8018 232.316C85.7306 230.5 85.6594 228.683 85.5881 226.867C85.5169 225.05 85.4457 223.448 85.3745 222.059H92.0522ZM101.241 224.89C100.208 224.035 98.9259 223.127 97.3944 222.166C95.863 221.204 94.2781 220.296 92.6399 219.441C91.0372 218.551 89.6304 217.838 88.4195 217.304L91.8385 212.015C92.8001 212.443 93.8864 212.977 95.0973 213.618C96.3438 214.224 97.5903 214.865 98.8368 215.541C100.119 216.218 101.294 216.895 102.363 217.571C103.467 218.212 104.357 218.782 105.034 219.281L101.241 224.89Z" fill="white"/>
</svg>
