<svg width="85" height="75" viewBox="0 0 85 75" fill="none" xmlns="http://www.w3.org/2000/svg">
<path d="M84.1262 44.148C84.1262 70.0662 67.2869 74.0435 41.3687 74.0435C15.4505 74.0435 3.66526 67.235 0.349277 46.2338C-2.77932 26.4193 15.4505 0 41.3687 0C67.2869 0 84.1262 18.2299 84.1262 44.148Z" fill="#E30000"/>
<path d="M23.9914 14.8333C25.1013 13.7234 28.5105 12.7476 30.5962 13.4429C33.4331 14.3885 33.3772 16.9191 30.5962 17.6143C27.8152 18.3096 26.7724 17.366 25.0343 17.6143C23.2961 17.8626 21.9056 16.9191 23.9914 14.8333Z" fill="white"/>
<path d="M59.4656 14.8333C58.3557 13.7234 54.9466 12.7476 52.8608 13.4429C50.0239 14.3885 50.0798 16.9191 52.8608 17.6143C55.6418 18.3096 56.6847 17.366 58.4228 17.6143C60.1609 17.8626 61.5514 16.9191 59.4656 14.8333Z" fill="white"/>
<path d="M39.4472 22.3039C38.8529 23.7567 39.2713 27.278 40.7191 28.9326C42.6882 31.1831 45.0002 30.1529 44.566 27.3194C44.1317 24.486 42.8583 23.8891 42.4152 22.1902C41.972 20.4913 40.5642 19.5738 39.4472 22.3039Z" fill="white"/>
<path d="M45.7107 37.9393C44.418 37.0487 40.8886 36.7067 38.9633 37.7683C36.3446 39.2122 36.858 41.6908 39.7189 41.8707C42.5799 42.0507 43.4345 40.9338 45.1889 40.8632C46.9432 40.7925 48.1398 39.6127 45.7107 37.9393Z" fill="white"/>
</svg>
